<svg width="264" height="85" viewBox="0 0 264 85" fill="none" xmlns="http://www.w3.org/2000/svg">
<path d="M119.13 54.77C118.31 54.77 117.73 54.73 117.39 54.65C117.05 54.55 116.84 54.42 116.76 54.26C116.7 54.1 116.67 53.94 116.67 53.78C116.67 53.56 116.78 53.36 117 53.18C117.24 52.98 117.72 52.82 118.44 52.7C119.36 52.5 120.44 52.3 121.68 52.1C122.94 51.88 124.28 51.68 125.7 51.5C127.12 51.3 128.54 51.12 129.96 50.96C131.4 50.8 132.77 50.68 134.07 50.6C135.39 50.5 136.56 50.45 137.58 50.45C138.94 50.45 139.86 50.57 140.34 50.81C140.84 51.05 141.09 51.31 141.09 51.59C141.09 51.85 140.95 52.09 140.67 52.31C140.41 52.53 139.96 52.64 139.32 52.64C139.06 52.64 138.46 52.7 137.52 52.82C136.58 52.92 135.43 53.06 134.07 53.24C132.73 53.4 131.31 53.58 129.81 53.78C129.71 54.46 129.56 55.36 129.36 56.48C129.16 57.58 128.93 58.79 128.67 60.11C128.43 61.43 128.18 62.76 127.92 64.1C127.68 65.42 127.45 66.65 127.23 67.79C127.03 68.93 126.86 69.87 126.72 70.61C126.58 71.35 126.5 71.79 126.48 71.93C126.4 72.55 126.22 73.02 125.94 73.34C125.68 73.64 125.39 73.79 125.07 73.79C124.69 73.79 124.37 73.63 124.11 73.31C123.87 72.97 123.75 72.38 123.75 71.54C123.75 71.26 123.81 70.72 123.93 69.92C124.05 69.1 124.21 68.13 124.41 67.01C124.61 65.89 124.83 64.7 125.07 63.44C125.31 62.18 125.55 60.95 125.79 59.75C126.03 58.53 126.25 57.43 126.45 56.45C126.65 55.45 126.8 54.67 126.9 54.11C125.32 54.29 123.83 54.45 122.43 54.59C121.05 54.71 119.95 54.77 119.13 54.77ZM149.713 74.72C149.373 74.72 149.083 74.57 148.843 74.27C148.603 73.97 148.483 73.53 148.483 72.95C148.483 72.27 148.583 71.3 148.783 70.04C149.003 68.78 149.323 67.11 149.743 65.03C149.203 66.31 148.603 67.52 147.943 68.66C147.303 69.8 146.623 70.73 145.903 71.45C145.183 72.17 144.443 72.53 143.683 72.53C142.943 72.53 142.283 72.24 141.703 71.66C141.143 71.08 140.863 70.06 140.863 68.6C140.863 67.78 140.933 66.86 141.073 65.84C141.213 64.8 141.393 63.77 141.613 62.75C141.833 61.73 142.053 60.82 142.273 60.02C142.493 59.2 142.693 58.6 142.873 58.22C143.013 57.9 143.153 57.69 143.293 57.59C143.433 57.47 143.623 57.41 143.863 57.41C144.143 57.41 144.443 57.53 144.763 57.77C145.083 58.01 145.243 58.41 145.243 58.97C145.243 59.11 145.173 59.44 145.033 59.96C144.913 60.46 144.753 61.08 144.553 61.82C144.373 62.54 144.183 63.32 143.983 64.16C143.783 65 143.613 65.84 143.473 66.68C143.353 67.52 143.293 68.29 143.293 68.99C143.293 69.37 143.333 69.68 143.413 69.92C143.493 70.16 143.693 70.28 144.013 70.28C144.293 70.28 144.643 70 145.063 69.44C145.503 68.88 145.973 68.14 146.473 67.22C146.993 66.28 147.523 65.24 148.063 64.1C148.623 62.96 149.163 61.79 149.683 60.59C150.223 59.39 150.713 58.25 151.153 57.17C151.313 56.81 151.483 56.59 151.663 56.51C151.843 56.41 152.043 56.36 152.263 56.36C152.623 56.36 152.943 56.51 153.223 56.81C153.523 57.09 153.673 57.46 153.673 57.92C153.673 58.22 153.613 58.74 153.493 59.48C153.393 60.22 153.243 61.09 153.043 62.09C152.863 63.07 152.653 64.11 152.413 65.21C152.193 66.31 151.973 67.4 151.753 68.48C151.533 69.54 151.323 70.51 151.123 71.39C150.943 72.27 150.793 72.98 150.673 73.52C150.573 74.02 150.433 74.34 150.253 74.48C150.093 74.64 149.913 74.72 149.713 74.72ZM161.683 74.57C161.363 74.57 161.093 74.44 160.873 74.18C160.653 73.92 160.543 73.56 160.543 73.1C160.543 72.76 160.613 72.2 160.753 71.42C160.913 70.62 161.083 69.69 161.263 68.63C161.463 67.57 161.633 66.47 161.773 65.33C161.913 64.17 161.983 63.06 161.983 62C161.983 61.48 162.113 61.1 162.373 60.86C162.653 60.6 162.963 60.47 163.303 60.47C163.623 60.47 163.863 60.67 164.023 61.07C164.183 61.47 164.213 62.27 164.113 63.47C165.033 61.43 166.043 59.79 167.143 58.55C168.263 57.29 169.373 56.39 170.473 55.85C171.573 55.29 172.563 55.01 173.443 55.01C174.023 55.01 174.443 55.13 174.703 55.37C174.983 55.59 175.123 55.84 175.123 56.12C175.123 56.5 174.963 56.8 174.643 57.02C174.343 57.22 173.813 57.46 173.053 57.74C172.173 58.08 171.363 58.48 170.623 58.94C169.903 59.38 169.213 59.96 168.553 60.68C167.913 61.4 167.283 62.32 166.663 63.44C166.043 64.54 165.423 65.9 164.803 67.52C164.183 69.14 163.523 71.09 162.823 73.37C162.703 73.81 162.543 74.12 162.343 74.3C162.163 74.48 161.943 74.57 161.683 74.57ZM197.822 60.83C198.182 61.89 198.532 63.01 198.872 64.19C199.232 65.37 199.522 66.53 199.742 67.67C199.982 68.79 200.102 69.79 200.102 70.67C200.102 71.67 199.852 72.49 199.352 73.13C198.872 73.75 198.252 74.23 197.492 74.57C196.732 74.93 195.932 75.17 195.092 75.29C194.272 75.43 193.512 75.5 192.812 75.5C192.252 75.5 191.862 75.38 191.642 75.14C191.442 74.92 191.342 74.68 191.342 74.42C191.342 74.24 191.412 74.06 191.552 73.88C191.692 73.68 192.052 73.54 192.632 73.46C193.072 73.4 193.572 73.3 194.132 73.16C194.712 73.02 195.272 72.83 195.812 72.59C196.372 72.35 196.832 72.06 197.192 71.72C197.552 71.36 197.732 70.93 197.732 70.43C197.732 69.33 197.572 68.2 197.252 67.04C196.952 65.88 196.642 64.69 196.322 63.47C195.622 64.55 194.822 65.62 193.922 66.68C193.022 67.74 192.062 68.75 191.042 69.71C190.022 70.67 188.992 71.52 187.952 72.26C186.912 73 185.902 73.58 184.922 74C183.942 74.42 183.032 74.63 182.192 74.63C180.812 74.63 179.692 74.15 178.832 73.19C177.972 72.21 177.542 70.74 177.542 68.78C177.542 67.68 177.652 66.55 177.872 65.39C178.112 64.23 178.412 63.16 178.772 62.18C179.152 61.18 179.542 60.38 179.942 59.78C180.342 59.16 180.712 58.85 181.052 58.85C181.312 58.85 181.532 58.93 181.712 59.09C181.912 59.25 182.012 59.53 182.012 59.93C182.012 60.15 181.922 60.59 181.742 61.25C181.562 61.89 181.362 62.65 181.142 63.53C180.922 64.39 180.722 65.3 180.542 66.26C180.362 67.2 180.272 68.08 180.272 68.9C180.272 69.98 180.452 70.77 180.812 71.27C181.192 71.77 181.702 72.02 182.342 72.02C183.122 72.02 184.012 71.77 185.012 71.27C186.012 70.77 187.042 70.11 188.102 69.29C189.162 68.45 190.182 67.53 191.162 66.53C192.162 65.51 193.052 64.47 193.832 63.41C194.612 62.35 195.222 61.34 195.662 60.38C195.602 60 195.552 59.61 195.512 59.21C195.492 58.81 195.482 58.41 195.482 58.01C195.482 57.33 195.592 56.76 195.812 56.3C196.032 55.82 196.282 55.45 196.562 55.19C196.862 54.93 197.112 54.8 197.312 54.8C197.752 54.8 198.102 55.02 198.362 55.46C198.622 55.9 198.752 56.54 198.752 57.38C198.752 57.88 198.672 58.42 198.512 59C198.352 59.58 198.122 60.19 197.822 60.83ZM182.042 55.16C181.482 55.16 181.042 55.01 180.722 54.71C180.422 54.39 180.272 53.97 180.272 53.45C180.272 52.85 180.472 52.37 180.872 52.01C181.292 51.63 181.762 51.44 182.282 51.44C182.862 51.44 183.322 51.61 183.662 51.95C184.022 52.27 184.202 52.73 184.202 53.33C184.202 53.77 183.982 54.19 183.542 54.59C183.122 54.97 182.622 55.16 182.042 55.16ZM231.464 73.1C231.444 73.42 231.314 73.68 231.074 73.88C230.834 74.08 230.554 74.18 230.234 74.18C229.874 74.18 229.574 74.06 229.334 73.82C229.094 73.58 228.974 73.21 228.974 72.71C228.974 71.41 229.034 70 229.154 68.48C229.274 66.94 229.424 65.42 229.604 63.92C229.784 62.4 229.964 61 230.144 59.72C229.484 60.66 228.764 61.7 227.984 62.84C227.224 63.98 226.444 65.11 225.644 66.23C224.844 67.35 224.064 68.38 223.304 69.32C222.544 70.24 221.854 70.99 221.234 71.57C220.614 72.13 220.104 72.41 219.704 72.41C218.964 72.41 218.324 72.12 217.784 71.54C217.244 70.94 216.974 70.19 216.974 69.29C216.974 68.93 217.014 68.44 217.094 67.82C217.174 67.18 217.264 66.51 217.364 65.81C217.464 65.11 217.554 64.46 217.634 63.86C217.714 63.24 217.754 62.78 217.754 62.48C217.754 62.2 217.724 61.96 217.664 61.76C217.624 61.54 217.524 61.43 217.364 61.43C217.124 61.43 216.794 61.7 216.374 62.24C215.954 62.76 215.484 63.43 214.964 64.25C214.464 65.07 213.944 65.94 213.404 66.86C212.884 67.78 212.394 68.65 211.934 69.47C211.474 70.27 211.084 70.9 210.764 71.36C210.504 71.8 210.264 72.12 210.044 72.32C209.824 72.52 209.554 72.62 209.234 72.62C208.854 72.62 208.504 72.42 208.184 72.02C207.884 71.62 207.734 71.13 207.734 70.55C207.734 70.21 207.794 69.68 207.914 68.96C208.034 68.22 208.184 67.41 208.364 66.53C208.564 65.65 208.754 64.79 208.934 63.95C209.134 63.09 209.304 62.36 209.444 61.76C209.604 61.08 209.804 60.62 210.044 60.38C210.284 60.14 210.544 60.02 210.824 60.02C211.204 60.02 211.504 60.16 211.724 60.44C211.964 60.7 212.084 61.11 212.084 61.67C212.084 61.77 212.024 62.04 211.904 62.48C211.784 62.9 211.634 63.42 211.454 64.04C211.294 64.64 211.114 65.27 210.914 65.93C210.734 66.59 210.584 67.2 210.464 67.76C210.904 67.02 211.364 66.22 211.844 65.36C212.344 64.5 212.844 63.65 213.344 62.81C213.844 61.95 214.344 61.17 214.844 60.47C215.344 59.75 215.834 59.18 216.314 58.76C216.794 58.34 217.254 58.13 217.694 58.13C218.214 58.13 218.694 58.29 219.134 58.61C219.594 58.93 219.964 59.36 220.244 59.9C220.524 60.44 220.664 61.04 220.664 61.7C220.664 62.16 220.584 62.81 220.424 63.65C220.264 64.47 220.094 65.36 219.914 66.32C219.754 67.28 219.654 68.19 219.614 69.05C219.614 69.25 219.674 69.35 219.794 69.35C219.894 69.35 220.014 69.28 220.154 69.14C220.734 68.5 221.374 67.73 222.074 66.83C222.774 65.91 223.484 64.94 224.204 63.92C224.944 62.9 225.674 61.9 226.394 60.92C227.114 59.92 227.784 59.02 228.404 58.22C229.044 57.4 229.604 56.75 230.084 56.27C230.584 55.79 230.974 55.55 231.254 55.55C231.854 55.55 232.314 55.72 232.634 56.06C232.954 56.4 233.114 56.97 233.114 57.77C233.114 58.41 233.064 59.24 232.964 60.26C232.884 61.28 232.774 62.39 232.634 63.59C232.514 64.79 232.374 66 232.214 67.22C232.074 68.42 231.934 69.54 231.794 70.58C231.654 71.6 231.544 72.44 231.464 73.1ZM244.512 74.3C243.332 74.3 242.402 73.85 241.722 72.95C241.042 72.05 240.702 70.88 240.702 69.44C240.702 68.92 240.772 68.37 240.912 67.79C241.072 67.19 241.272 66.65 241.512 66.17C241.372 66.03 241.262 65.84 241.182 65.6C241.102 65.34 241.062 65.02 241.062 64.64C241.062 63.46 241.262 62.38 241.662 61.4C242.062 60.42 242.592 59.57 243.252 58.85C243.912 58.11 244.642 57.54 245.442 57.14C246.262 56.74 247.092 56.54 247.932 56.54C249.312 56.54 250.432 57.04 251.292 58.04C252.152 59.02 252.582 60.52 252.582 62.54C252.582 63.6 252.422 64.68 252.102 65.78C251.802 66.88 251.382 67.94 250.842 68.96C250.322 69.98 249.712 70.89 249.012 71.69C248.332 72.49 247.602 73.13 246.822 73.61C246.062 74.07 245.292 74.3 244.512 74.3ZM243.492 65.15C243.612 65.31 243.672 65.52 243.672 65.78C243.672 66.08 243.612 66.38 243.492 66.68C243.392 66.98 243.282 67.39 243.162 67.91C243.042 68.43 242.982 69.17 242.982 70.13C242.982 71.09 243.362 71.57 244.122 71.57C244.962 71.57 245.742 71.24 246.462 70.58C247.182 69.9 247.822 69.03 248.382 67.97C248.942 66.91 249.372 65.78 249.672 64.58C249.992 63.36 250.152 62.21 250.152 61.13C250.152 60.43 250.022 59.94 249.762 59.66C249.502 59.36 249.032 59.21 248.352 59.21C247.652 59.21 246.922 59.45 246.162 59.93C245.422 60.39 244.802 61.02 244.302 61.82C243.802 62.62 243.552 63.52 243.552 64.52C243.552 64.74 243.532 64.95 243.492 65.15Z" fill="#87B867"/>
<path d="M216.864 23L210.557 31.4091L215.35 37.8L212.659 39.8182C209.817 36.0341 205.091 29.7273 205.091 29.7273L195 43.1818H232L216.864 23Z" fill="white"/>
<path d="M29.4014 10.2969V43H23.2021L9.29883 20.3145V43H3.12207V10.2969H9.29883L23.2471 33.0049V10.2969H29.4014ZM46.1572 43.4492C44.3154 43.4492 42.6608 43.1497 41.1934 42.5508C39.7259 41.9518 38.4756 41.1208 37.4424 40.0576C36.4242 38.9795 35.638 37.7292 35.084 36.3066C34.5449 34.8691 34.2754 33.3268 34.2754 31.6797V30.7812C34.2754 28.9095 34.5449 27.21 35.084 25.6826C35.623 24.1403 36.3867 22.8151 37.375 21.707C38.3633 20.599 39.5462 19.7454 40.9238 19.1465C42.3014 18.5475 43.8213 18.248 45.4834 18.248C47.2054 18.248 48.7253 18.54 50.043 19.124C51.3607 19.693 52.4613 20.5016 53.3447 21.5498C54.2282 22.598 54.8945 23.8558 55.3438 25.3232C55.793 26.7757 56.0176 28.3854 56.0176 30.1523V32.6455H36.9707V28.5576H50.1777V28.1084C50.1478 27.165 49.9681 26.304 49.6387 25.5254C49.3092 24.7318 48.8001 24.1029 48.1113 23.6387C47.4225 23.1595 46.5316 22.9199 45.4385 22.9199C44.555 22.9199 43.7839 23.1146 43.125 23.5039C42.4811 23.8783 41.9421 24.4173 41.5078 25.1211C41.0885 25.8099 40.7741 26.6335 40.5645 27.5918C40.3548 28.5501 40.25 29.6133 40.25 30.7812V31.6797C40.25 32.6979 40.3848 33.6413 40.6543 34.5098C40.9388 35.3783 41.3506 36.1344 41.8896 36.7783C42.4437 37.4072 43.1025 37.9014 43.8662 38.2607C44.6449 38.6051 45.5283 38.7773 46.5166 38.7773C47.7594 38.7773 48.8825 38.5378 49.8857 38.0586C50.904 37.5645 51.7874 36.8382 52.5361 35.8799L55.5234 38.9795C55.0143 39.7282 54.3255 40.4469 53.457 41.1357C52.6035 41.8245 51.5703 42.3861 50.3574 42.8203C49.1445 43.2396 47.7445 43.4492 46.1572 43.4492ZM74.458 37.2275V18.6973H80.4326V43H74.8174L74.458 37.2275ZM75.2217 32.1963L77.0635 32.1514C77.0635 33.7835 76.8838 35.2884 76.5244 36.666C76.165 38.0436 75.6035 39.2415 74.8398 40.2598C74.0911 41.263 73.1403 42.0492 71.9873 42.6182C70.8343 43.1722 69.4717 43.4492 67.8994 43.4492C66.7015 43.4492 65.6084 43.2845 64.6201 42.9551C63.6318 42.6107 62.7783 42.0791 62.0596 41.3604C61.3558 40.6266 60.8092 39.6908 60.4199 38.5527C60.0306 37.3997 59.8359 36.0146 59.8359 34.3975V18.6973H65.7656V34.4424C65.7656 35.251 65.8555 35.9248 66.0352 36.4639C66.2298 37.0029 66.4919 37.4447 66.8213 37.7891C67.1657 38.1185 67.5625 38.3581 68.0117 38.5078C68.4759 38.6426 68.9701 38.71 69.4941 38.71C70.9316 38.71 72.0622 38.4255 72.8857 37.8564C73.7243 37.2725 74.3232 36.4938 74.6826 35.5205C75.042 34.5322 75.2217 33.4242 75.2217 32.1963ZM100.243 52.3438V23.5938L100.962 18.6973H106.218V52.3438H100.243ZM84.6553 31.0957V30.624C84.6553 28.7673 84.8649 27.0827 85.2842 25.5703C85.7035 24.043 86.3174 22.7402 87.126 21.6621C87.9495 20.569 88.9528 19.7305 90.1357 19.1465C91.3187 18.5475 92.6738 18.248 94.2012 18.248C95.6986 18.248 96.9938 18.54 98.0869 19.124C99.18 19.708 100.108 20.5391 100.872 21.6172C101.636 22.6803 102.242 23.9456 102.691 25.4131C103.156 26.8805 103.5 28.5052 103.725 30.2871V31.5674C103.5 33.2744 103.156 34.8542 102.691 36.3066C102.242 37.7441 101.636 39.002 100.872 40.0801C100.123 41.1432 99.195 41.9743 98.0869 42.5732C96.9788 43.1572 95.6686 43.4492 94.1562 43.4492C92.6439 43.4492 91.2962 43.1423 90.1133 42.5283C88.9453 41.8994 87.9495 41.0309 87.126 39.9229C86.3174 38.8148 85.7035 37.512 85.2842 36.0146C84.8649 34.5023 84.6553 32.8626 84.6553 31.0957ZM90.6074 30.624V31.0957C90.6074 32.1589 90.6973 33.1546 90.877 34.083C91.0716 34.9964 91.3711 35.805 91.7754 36.5088C92.1797 37.2126 92.6963 37.7666 93.3252 38.1709C93.9691 38.5752 94.7477 38.7773 95.6611 38.7773C96.889 38.7773 97.8848 38.5078 98.6484 37.9688C99.4271 37.4297 100.011 36.7035 100.4 35.79C100.805 34.8617 101.067 33.8285 101.187 32.6904V29.1865C101.112 28.2731 100.954 27.4346 100.715 26.6709C100.475 25.9072 100.138 25.2484 99.7041 24.6943C99.2848 24.1403 98.7458 23.7061 98.0869 23.3916C97.4281 23.0771 96.6344 22.9199 95.7061 22.9199C94.7926 22.9199 94.014 23.1221 93.3701 23.5264C92.7262 23.9157 92.2021 24.4622 91.7979 25.166C91.3936 25.8698 91.0941 26.6859 90.8994 27.6143C90.7048 28.5426 90.6074 29.5459 90.6074 30.624ZM126.163 37.2275V18.6973H132.138V43H126.522L126.163 37.2275ZM126.927 32.1963L128.769 32.1514C128.769 33.7835 128.589 35.2884 128.229 36.666C127.87 38.0436 127.309 39.2415 126.545 40.2598C125.796 41.263 124.845 42.0492 123.692 42.6182C122.539 43.1722 121.177 43.4492 119.604 43.4492C118.407 43.4492 117.313 43.2845 116.325 42.9551C115.337 42.6107 114.483 42.0791 113.765 41.3604C113.061 40.6266 112.514 39.6908 112.125 38.5527C111.736 37.3997 111.541 36.0146 111.541 34.3975V18.6973H117.471V34.4424C117.471 35.251 117.561 35.9248 117.74 36.4639C117.935 37.0029 118.197 37.4447 118.526 37.7891C118.871 38.1185 119.268 38.3581 119.717 38.5078C120.181 38.6426 120.675 38.71 121.199 38.71C122.637 38.71 123.767 38.4255 124.591 37.8564C125.429 37.2725 126.028 36.4938 126.388 35.5205C126.747 34.5322 126.927 33.4242 126.927 32.1963ZM148.31 43.4492C146.468 43.4492 144.813 43.1497 143.346 42.5508C141.878 41.9518 140.628 41.1208 139.595 40.0576C138.576 38.9795 137.79 37.7292 137.236 36.3066C136.697 34.8691 136.428 33.3268 136.428 31.6797V30.7812C136.428 28.9095 136.697 27.21 137.236 25.6826C137.775 24.1403 138.539 22.8151 139.527 21.707C140.516 20.599 141.699 19.7454 143.076 19.1465C144.454 18.5475 145.974 18.248 147.636 18.248C149.358 18.248 150.878 18.54 152.195 19.124C153.513 19.693 154.614 20.5016 155.497 21.5498C156.381 22.598 157.047 23.8558 157.496 25.3232C157.945 26.7757 158.17 28.3854 158.17 30.1523V32.6455H139.123V28.5576H152.33V28.1084C152.3 27.165 152.12 26.304 151.791 25.5254C151.462 24.7318 150.952 24.1029 150.264 23.6387C149.575 23.1595 148.684 22.9199 147.591 22.9199C146.707 22.9199 145.936 23.1146 145.277 23.5039C144.633 23.8783 144.094 24.4173 143.66 25.1211C143.241 25.8099 142.926 26.6335 142.717 27.5918C142.507 28.5501 142.402 29.6133 142.402 30.7812V31.6797C142.402 32.6979 142.537 33.6413 142.807 34.5098C143.091 35.3783 143.503 36.1344 144.042 36.7783C144.596 37.4072 145.255 37.9014 146.019 38.2607C146.797 38.6051 147.681 38.7773 148.669 38.7773C149.912 38.7773 151.035 38.5378 152.038 38.0586C153.056 37.5645 153.94 36.8382 154.688 35.8799L157.676 38.9795C157.167 39.7282 156.478 40.4469 155.609 41.1357C154.756 41.8245 153.723 42.3861 152.51 42.8203C151.297 43.2396 149.897 43.4492 148.31 43.4492ZM144.154 15.3057L148.557 8.47754H155.115L148.983 15.3057H144.154ZM167.963 23.8857V43H162.033V18.6973H167.604L167.963 23.8857ZM167.02 29.9727H165.268C165.283 28.2057 165.522 26.6035 165.986 25.166C166.451 23.7285 167.102 22.4932 167.94 21.46C168.794 20.4268 169.805 19.6331 170.973 19.0791C172.141 18.5251 173.443 18.248 174.881 18.248C176.049 18.248 177.104 18.4128 178.048 18.7422C178.991 19.0716 179.8 19.5957 180.474 20.3145C181.162 21.0332 181.687 21.9766 182.046 23.1445C182.42 24.2975 182.607 25.7201 182.607 27.4121V43H176.633V27.3672C176.633 26.2591 176.468 25.3831 176.139 24.7393C175.824 24.0954 175.36 23.6387 174.746 23.3691C174.147 23.0996 173.406 22.9648 172.522 22.9648C171.609 22.9648 170.808 23.152 170.119 23.5264C169.445 23.8857 168.876 24.3874 168.412 25.0312C167.963 25.6751 167.618 26.4163 167.379 27.2549C167.139 28.0934 167.02 28.9993 167.02 29.9727Z" fill="#87B867"/>
</svg>
